<svg xmlns="http://www.w3.org/2000/svg" viewBox="0 0 346.14 422.24"><defs><style>.cls-1,.cls-4{fill:#3fa9f5;}.cls-1,.cls-2,.cls-3,.cls-4{stroke:#000;stroke-miterlimit:10;}.cls-1,.cls-2{stroke-width:5px;}.cls-2,.cls-3{fill:#2e3192;}.cls-3,.cls-4{stroke-width:3px;}</style></defs><g id="Layer_2" data-name="Layer 2"><g id="Layer_1-2" data-name="Layer 1"><polygon class="cls-1" points="291.69 207.05 342.51 157.83 176.56 3.45 13.37 161.5 116.83 257.76 229.21 148.92 291.69 207.05"/><polygon class="cls-2" points="229.3 164.48 116.93 273.32 54.45 215.19 3.63 264.41 169.58 418.79 332.77 260.73 229.3 164.48"/><path class="cls-3" d="M101,132.13l71.17.09,0,10.55-56.33-.07-.1,32.85,47.68.06,0,10.55-47.68-.06-.12,43.55H100.76Z"/><path class="cls-4" d="M183.48,228.38l16.28,0-.1,36.61,52.09.07.11-36.62,16.27,0-.25,87.66-16.28,0,.12-41.16-52.09-.06-.12,41.16-16.28,0Z"/></g></g></svg>